<svg width="100" height="100" viewBox="0 0 100 100" fill="none" xmlns="http://www.w3.org/2000/svg">
<circle cx="50" cy="50" r="50" fill="#8B9F6E"/>
<path d="M31 48C29.8954 48 29 48.8954 29 50C29 51.1046 29.8954 52 31 52V48ZM69.4142 51.4142C70.1953 50.6332 70.1953 49.3668 69.4142 48.5858L56.6863 35.8579C55.9052 35.0768 54.6389 35.0768 53.8579 35.8579C53.0768 36.6389 53.0768 37.9052 53.8579 38.6863L65.1716 50L53.8579 61.3137C53.0768 62.0948 53.0768 63.3611 53.8579 64.1421C54.6389 64.9232 55.9052 64.9232 56.6863 64.1421L69.4142 51.4142ZM31 52H68V48H31V52Z" fill="white"/>
</svg>
