<svg width="71" height="31" viewBox="0 0 71 31" fill="none" xmlns="http://www.w3.org/2000/svg">
<path d="M5.99 18.04H12.71V22H0.86V0.939999H5.99V18.04ZM22.7769 22.24C21.1369 22.24 19.6569 21.89 18.3369 21.19C17.0369 20.49 16.0069 19.49 15.2469 18.19C14.5069 16.89 14.1369 15.37 14.1369 13.63C14.1369 11.91 14.5169 10.4 15.2769 9.1C16.0369 7.78 17.0769 6.77 18.3969 6.07C19.7169 5.37 21.1969 5.02 22.8369 5.02C24.4769 5.02 25.9569 5.37 27.2769 6.07C28.5969 6.77 29.6369 7.78 30.3969 9.1C31.1569 10.4 31.5369 11.91 31.5369 13.63C31.5369 15.35 31.1469 16.87 30.3669 18.19C29.6069 19.49 28.5569 20.49 27.2169 21.19C25.8969 21.89 24.4169 22.24 22.7769 22.24ZM22.7769 17.8C23.7569 17.8 24.5869 17.44 25.2669 16.72C25.9669 16 26.3169 14.97 26.3169 13.63C26.3169 12.29 25.9769 11.26 25.2969 10.54C24.6369 9.82 23.8169 9.46 22.8369 9.46C21.8369 9.46 21.0069 9.82 20.3469 10.54C19.6869 11.24 19.3569 12.27 19.3569 13.63C19.3569 14.97 19.6769 16 20.3169 16.72C20.9769 17.44 21.7969 17.8 22.7769 17.8ZM40.6184 5.02C41.7984 5.02 42.8284 5.26 43.7084 5.74C44.6084 6.22 45.2984 6.85 45.7784 7.63V5.26H50.9084V21.97C50.9084 23.51 50.5984 24.9 49.9784 26.14C49.3784 27.4 48.4484 28.4 47.1884 29.14C45.9484 29.88 44.3984 30.25 42.5384 30.25C40.0584 30.25 38.0484 29.66 36.5084 28.48C34.9684 27.32 34.0884 25.74 33.8684 23.74H38.9384C39.0984 24.38 39.4784 24.88 40.0784 25.24C40.6784 25.62 41.4184 25.81 42.2984 25.81C43.3584 25.81 44.1984 25.5 44.8184 24.88C45.4584 24.28 45.7784 23.31 45.7784 21.97V19.6C45.2784 20.38 44.5884 21.02 43.7084 21.52C42.8284 22 41.7984 22.24 40.6184 22.24C39.2384 22.24 37.9884 21.89 36.8684 21.19C35.7484 20.47 34.8584 19.46 34.1984 18.16C33.5584 16.84 33.2384 15.32 33.2384 13.6C33.2384 11.88 33.5584 10.37 34.1984 9.07C34.8584 7.77 35.7484 6.77 36.8684 6.07C37.9884 5.37 39.2384 5.02 40.6184 5.02ZM45.7784 13.63C45.7784 12.35 45.4184 11.34 44.6984 10.6C43.9984 9.86 43.1384 9.49 42.1184 9.49C41.0984 9.49 40.2284 9.86 39.5084 10.6C38.8084 11.32 38.4584 12.32 38.4584 13.6C38.4584 14.88 38.8084 15.9 39.5084 16.66C40.2284 17.4 41.0984 17.77 42.1184 17.77C43.1384 17.77 43.9984 17.4 44.6984 16.66C45.4184 15.92 45.7784 14.91 45.7784 13.63ZM62.2398 22.24C60.5998 22.24 59.1198 21.89 57.7998 21.19C56.4998 20.49 55.4698 19.49 54.7098 18.19C53.9698 16.89 53.5998 15.37 53.5998 13.63C53.5998 11.91 53.9798 10.4 54.7398 9.1C55.4998 7.78 56.5398 6.77 57.8598 6.07C59.1798 5.37 60.6598 5.02 62.2998 5.02C63.9398 5.02 65.4198 5.37 66.7398 6.07C68.0598 6.77 69.0998 7.78 69.8598 9.1C70.6198 10.4 70.9998 11.91 70.9998 13.63C70.9998 15.35 70.6098 16.87 69.8298 18.19C69.0698 19.49 68.0198 20.49 66.6798 21.19C65.3598 21.89 63.8798 22.24 62.2398 22.24ZM62.2398 17.8C63.2198 17.8 64.0498 17.44 64.7298 16.72C65.4298 16 65.7798 14.97 65.7798 13.63C65.7798 12.29 65.4398 11.26 64.7598 10.54C64.0998 9.82 63.2798 9.46 62.2998 9.46C61.2998 9.46 60.4698 9.82 59.8098 10.54C59.1498 11.24 58.8198 12.27 58.8198 13.63C58.8198 14.97 59.1398 16 59.7798 16.72C60.4398 17.44 61.2598 17.8 62.2398 17.8Z" fill="white"/>
</svg>
