<svg width="1512" height="920" viewBox="0 0 1512 920" fill="none" xmlns="http://www.w3.org/2000/svg">
<rect x="-0.000244141" width="1512" height="860" fill="#8B9F6E"/>
<g opacity="0.8" filter="url(#filter0_f_1_255)">
<ellipse cx="258" cy="233" rx="352" ry="335" fill="white"/>
</g>
<g opacity="0.2">
<path d="M1294 -276.547C1182.63 -316.972 887.734 -382.28 737.061 -137.422C538.866 184.665 360.087 471.911 -8.56787 395.299C-303.492 334.009 -378.381 134.976 -378.96 43.1202" stroke="white" stroke-width="3"/>
<path d="M1295.62 -235.654C1184.25 -276.08 889.352 -341.387 738.68 -96.5295C540.484 225.557 361.706 512.804 -6.94959 436.192C-301.874 374.902 -376.763 175.869 -377.341 84.013" stroke="white" stroke-width="3"/>
<path d="M1297.24 -194.761C1185.87 -235.187 890.971 -300.494 740.298 -55.6367C542.102 266.45 363.324 553.697 -5.3313 477.085C-300.255 415.795 -375.144 216.761 -375.723 124.906" stroke="white" stroke-width="3"/>
<path d="M1298.86 -153.868C1187.49 -194.294 892.589 -259.601 741.916 -14.7439C543.721 307.343 364.942 594.59 -3.71301 517.977C-298.637 456.688 -373.526 257.654 -374.105 165.799" stroke="white" stroke-width="3"/>
<path d="M1300.48 -112.976C1189.11 -153.401 894.207 -218.708 743.535 26.1489C545.339 348.236 366.561 635.482 -2.09461 558.87C-297.019 497.581 -371.908 298.547 -372.487 206.691" stroke="white" stroke-width="3"/>
<path d="M1302.09 -72.0828C1190.72 -112.508 895.826 -177.815 745.153 67.0418C546.957 389.129 368.179 676.375 -0.476319 599.763C-295.4 538.473 -370.289 339.44 -370.868 247.584" stroke="white" stroke-width="3"/>
<path d="M1303.71 -31.19C1192.34 -71.6154 897.444 -136.923 746.771 107.935C548.576 430.022 369.797 717.268 1.14197 640.656C-293.782 579.366 -368.671 380.333 -369.25 288.477" stroke="white" stroke-width="3"/>
</g>
<rect x="639" y="604" width="764" height="145" rx="50" fill="white"/>
<defs>
<filter id="filter0_f_1_255" x="-394" y="-402" width="1304" height="1270" filterUnits="userSpaceOnUse" color-interpolation-filters="sRGB">
<feFlood flood-opacity="0" result="BackgroundImageFix"/>
<feBlend mode="normal" in="SourceGraphic" in2="BackgroundImageFix" result="shape"/>
<feGaussianBlur stdDeviation="150" result="effect1_foregroundBlur_1_255"/>
</filter>
</defs>
</svg>
